<svg width="35" height="25" viewBox="0 0 35 25" fill="none" xmlns="http://www.w3.org/2000/svg">
<g clip-path="url(#clip0_3_2338)">
<path d="M0 0.926514H35V24.2601H0V0.926514Z" fill="white"/>
<path d="M19.6875 0.926331H15.3125V10.4055H0V14.7805H15.3125V24.2596H19.6875V14.7805H35V10.4055H19.6875V0.926331Z" fill="#D80027"/>
<path d="M26.919 16.6509L35.0001 21.1404V16.6509H26.919ZM21.3044 16.6509L35.0001 24.2596V22.108L25.1773 16.6509H21.3044ZM31.352 24.2596L21.3044 18.677V24.2596H31.352Z" fill="#0052B4"/>
<path d="M21.3044 16.6509L35.0001 24.2595V22.108L25.1773 16.6509H21.3044Z" fill="white"/>
<path d="M21.3044 16.6509L35.0001 24.2595V22.108L25.1773 16.6509H21.3044Z" fill="#D80027"/>
<path d="M6.17565 16.6508L0 20.0817V16.6508H6.17565ZM13.6957 17.6183V24.2595H1.74255L13.6957 17.6183Z" fill="#0052B4"/>
<path d="M9.82276 16.6509L0 22.108V24.2595L13.6957 16.6509H9.82276Z" fill="#D80027"/>
<path d="M8.0811 8.535L0 4.04543V8.535H8.0811ZM13.6957 8.535L0 0.926331V3.07787L9.82276 8.535H13.6957ZM3.64807 0.926331L13.6957 6.50883V0.926331H3.64807Z" fill="#0052B4"/>
<path d="M13.6957 8.535L0 0.926331V3.07787L9.82276 8.535H13.6957Z" fill="white"/>
<path d="M13.6957 8.535L0 0.926331V3.07787L9.82276 8.535H13.6957Z" fill="#D80027"/>
<path d="M28.8245 8.53513L35.0001 5.10418V8.53513H28.8245ZM21.3044 7.56757V0.926392H33.2576L21.3044 7.56757Z" fill="#0052B4"/>
<path d="M25.1773 8.535L35.0001 3.07787V0.926331L21.3044 8.535H25.1773Z" fill="#D80027"/>
</g>
<defs>
<clipPath id="clip0_3_2338">
<rect width="35" height="23.3333" fill="white" transform="translate(0 0.926514)"/>
</clipPath>
</defs>
</svg>
