<svg width="35" height="25" viewBox="0 0 35 25" fill="none" xmlns="http://www.w3.org/2000/svg">
<g clip-path="url(#clip0_3_2266)">
<path d="M0 0.959961H35V24.2933H0V0.959961Z" fill="white"/>
<path d="M0 0.959961H35V3.55255H0V0.959961ZM0 6.14515H35V8.73774H0V6.14515ZM0 11.3303H35V13.9229H0V11.3303ZM0 16.5155H35V19.1081H0V16.5155ZM0 21.7007H35V24.2933H0V21.7007Z" fill="#0D5EAF"/>
<path d="M0 0.959961H12.963V13.9229H0V0.959961Z" fill="#0D5EAF"/>
<path d="M0 6.14514H12.963V8.73773H0V6.14514Z" fill="white"/>
<path d="M5.1853 0.959961H7.7779V13.9229H5.1853V0.959961Z" fill="white"/>
</g>
<defs>
<clipPath id="clip0_3_2266">
<rect width="35" height="23.3333" fill="white" transform="translate(0 0.959961)"/>
</clipPath>
</defs>
</svg>
