<?xml version="1.0" encoding="UTF-8"?>
<!DOCTYPE svg PUBLIC "-//W3C//DTD SVG 1.1//EN" "http://www.w3.org/Graphics/SVG/1.1/DTD/svg11.dtd">
<svg xmlns="http://www.w3.org/2000/svg" version="1.1" width="700px" height="500px" style="shape-rendering:geometricPrecision; text-rendering:geometricPrecision; image-rendering:optimizeQuality; fill-rule:evenodd; clip-rule:evenodd" xmlns:xlink="http://www.w3.org/1999/xlink">
<g><path style="opacity:1" fill="#24a3d4" d="M 175.5,223.5 C 181.902,235.302 188.569,246.969 195.5,258.5C 188.89,270.434 181.89,282.1 174.5,293.5C 168.942,283.391 163.109,273.391 157,263.5C 156.092,261.561 154.592,260.561 152.5,260.5C 153.329,258.067 152.829,255.733 151,253.5C 148.938,251.099 147.271,248.433 146,245.5C 145.107,244.289 144.274,244.289 143.5,245.5C 127.833,271.5 112.167,297.5 96.5,323.5C 82.1783,324.666 67.8449,324.833 53.5,324C 83.8745,274.083 114.375,224.25 145,174.5C 154.691,191.233 164.857,207.567 175.5,223.5 Z"/></g>
<g><path style="opacity:1" fill="#2da4d4" d="M 267.5,186.5 C 270.518,186.335 273.518,186.502 276.5,187C 279.042,187.546 281.042,188.879 282.5,191C 281.002,194.993 278.669,195.326 275.5,192C 265.1,191.895 261.267,197.062 264,207.5C 268.366,214.256 273.866,215.256 280.5,210.5C 281.382,211.76 282.382,212.926 283.5,214C 277.615,218.897 270.948,219.564 263.5,216C 256.931,209.055 255.764,201.222 260,192.5C 262.114,189.879 264.614,187.879 267.5,186.5 Z"/></g>
<g><path style="opacity:1" fill="#27a3d4" d="M 296.5,186.5 C 298.792,186.244 300.959,186.577 303,187.5C 306.704,197.737 310.537,207.903 314.5,218C 308.738,219.048 306.071,216.548 306.5,210.5C 301.833,210.5 297.167,210.5 292.5,210.5C 292.244,212.937 291.577,215.271 290.5,217.5C 288.5,218.833 286.5,218.833 284.5,217.5C 288.508,207.138 292.508,196.805 296.5,186.5 Z M 298.5,193.5 C 301.15,197.244 303.15,201.411 304.5,206C 301.167,206.667 297.833,206.667 294.5,206C 296.335,201.996 297.668,197.83 298.5,193.5 Z"/></g>
<g><path style="opacity:1" fill="#3ca4d2" d="M 317.5,186.5 C 323.577,186.196 329.577,186.696 335.5,188C 342.532,195.078 341.699,201.245 333,206.5C 330.045,206.322 326.879,206.322 323.5,206.5C 323.5,210.5 323.5,214.5 323.5,218.5C 321.5,218.5 319.5,218.5 317.5,218.5C 317.814,208.658 317.814,197.991 317.5,186.5 Z M 323.5,190.5 C 329.183,189.169 332.849,191.169 334.5,196.5C 332.849,201.831 329.183,203.831 323.5,202.5C 323.5,198.5 323.5,194.5 323.5,190.5 Z"/></g>
<g><path style="opacity:1" fill="#45a5d1" d="M 344.5,187.5 C 346.265,186.539 348.265,186.205 350.5,186.5C 350.5,197.167 350.5,207.833 350.5,218.5C 348.5,218.5 346.5,218.5 344.5,218.5C 344.543,207.86 344.543,197.526 344.5,187.5 Z"/></g>
<g><path style="opacity:1" fill="#24a4d5" d="M 355.5,186.5 C 363.5,186.5 371.5,186.5 379.5,186.5C 379.5,188.167 379.5,189.833 379.5,191.5C 376.5,191.5 373.5,191.5 370.5,191.5C 370.5,200.5 370.5,209.5 370.5,218.5C 368.5,218.5 366.5,218.5 364.5,218.5C 364.5,209.5 364.5,200.5 364.5,191.5C 361.5,191.5 358.5,191.5 355.5,191.5C 355.5,189.833 355.5,188.167 355.5,186.5 Z"/></g>
<g><path style="opacity:1" fill="#2ca4d4" d="M 389.5,186.5 C 393.158,185.872 395.658,187.206 397,190.5C 400.402,199.539 403.902,208.539 407.5,217.5C 401.742,219.098 399.075,216.764 399.5,210.5C 394.833,210.5 390.167,210.5 385.5,210.5C 385.244,212.937 384.577,215.271 383.5,217.5C 381.5,218.833 379.5,218.833 377.5,217.5C 381.508,207.138 385.508,196.805 389.5,186.5 Z M 391.5,194.5 C 392.497,194.47 393.164,194.97 393.5,196C 394.566,199.461 395.899,202.794 397.5,206C 394.167,206.667 390.833,206.667 387.5,206C 389.131,202.272 390.465,198.439 391.5,194.5 Z"/></g>
<g><path style="opacity:1" fill="#3ea4d1" d="M 410.5,186.5 C 412.5,186.5 414.5,186.5 416.5,186.5C 416.5,195.5 416.5,204.5 416.5,213.5C 420.833,213.5 425.167,213.5 429.5,213.5C 429.5,215.167 429.5,216.833 429.5,218.5C 423.242,218.81 417.076,218.476 411,217.5C 410.587,206.992 410.42,196.659 410.5,186.5 Z"/></g>
<g><path style="opacity:1" fill="#2ba4d4" d="M 450.5,186.5 C 453.518,186.335 456.518,186.502 459.5,187C 462.042,187.546 464.042,188.879 465.5,191C 464.002,194.993 461.669,195.326 458.5,192C 448.1,191.895 444.267,197.062 447,207.5C 451.23,214.205 456.563,215.205 463,210.5C 464.5,211.333 465.667,212.5 466.5,214C 458.281,220.274 450.447,219.774 443,212.5C 437.677,201.374 440.177,192.707 450.5,186.5 Z"/></g>
<g><path style="opacity:1" fill="#29a4d4" d="M 479.5,186.5 C 495.979,186.436 502.145,194.436 498,210.5C 492.603,218.271 485.437,220.438 476.5,217C 468.944,212.152 466.444,205.318 469,196.5C 471.106,191.557 474.606,188.224 479.5,186.5 Z M 480.5,191.5 C 491.473,191.32 495.639,196.653 493,207.5C 489.608,213.467 484.774,214.967 478.5,212C 472.141,204.592 472.807,197.759 480.5,191.5 Z"/></g>
<g><path style="opacity:1" fill="#34a4d3" d="M 504.5,186.5 C 507.365,186.055 509.865,186.722 512,188.5C 515.078,194.991 518.412,201.325 522,207.5C 525.245,200.676 528.745,194.009 532.5,187.5C 534.396,186.534 536.396,186.201 538.5,186.5C 538.5,197.167 538.5,207.833 538.5,218.5C 536.833,218.5 535.167,218.5 533.5,218.5C 533.666,211.159 533.5,203.826 533,196.5C 530.667,201.167 528.333,205.833 526,210.5C 522.575,215.985 519.575,215.651 517,209.5C 515,205.5 513,201.5 511,197.5C 510.5,204.492 510.334,211.492 510.5,218.5C 508.5,218.5 506.5,218.5 504.5,218.5C 504.963,207.773 504.963,197.106 504.5,186.5 Z"/></g>
<g><path style="opacity:1" fill="#3ca4d2" d="M 545.5,186.5 C 550.844,186.334 556.177,186.501 561.5,187C 569.983,192.091 570.65,198.091 563.5,205C 559.582,206.156 555.582,206.656 551.5,206.5C 551.5,210.5 551.5,214.5 551.5,218.5C 549.5,218.5 547.5,218.5 545.5,218.5C 545.607,207.666 545.607,197 545.5,186.5 Z M 551.5,190.5 C 557.318,188.969 560.984,190.969 562.5,196.5C 560.984,202.031 557.318,204.031 551.5,202.5C 551.5,198.5 551.5,194.5 551.5,190.5 Z"/></g>
<g><path style="opacity:1" fill="#2aa4d4" d="M 579.5,186.5 C 583.158,185.872 585.658,187.206 587,190.5C 590.402,199.539 593.902,208.539 597.5,217.5C 591.742,219.098 589.075,216.764 589.5,210.5C 584.833,210.5 580.167,210.5 575.5,210.5C 575.244,212.937 574.577,215.271 573.5,217.5C 571.5,218.833 569.5,218.833 567.5,217.5C 571.508,207.138 575.508,196.805 579.5,186.5 Z M 581.5,193.5 C 584.15,197.244 586.15,201.411 587.5,206C 584.167,206.667 580.833,206.667 577.5,206C 579.335,201.996 580.668,197.83 581.5,193.5 Z"/></g>
<g><path style="opacity:1" fill="#2fa4d3" d="M 605.5,186.5 C 608.187,186.336 610.854,186.503 613.5,187C 618.559,187.971 619.393,190.138 616,193.5C 613.349,191.836 610.516,191.336 607.5,192C 605.398,193.733 605.065,195.733 606.5,198C 609.95,199.03 613.283,200.363 616.5,202C 621.417,208.932 620.083,214.265 612.5,218C 607.025,219.402 602.358,218.069 598.5,214C 599.155,212.513 600.155,211.347 601.5,210.5C 606.684,214.957 611.018,214.457 614.5,209C 613.833,208 613.167,207 612.5,206C 608.195,205.097 604.361,203.263 601,200.5C 598.227,194.395 599.727,189.728 605.5,186.5 Z"/></g>
<g><path style="opacity:1" fill="#2da4d4" d="M 629.5,186.5 C 632.187,186.336 634.854,186.503 637.5,187C 642.559,187.971 643.393,190.138 640,193.5C 637.349,191.836 634.516,191.336 631.5,192C 629.398,193.733 629.065,195.733 630.5,198C 633.95,199.03 637.283,200.363 640.5,202C 643.875,205.762 644.375,209.928 642,214.5C 635.362,219.941 628.862,219.775 622.5,214C 623.155,212.513 624.155,211.347 625.5,210.5C 630.684,214.957 635.018,214.457 638.5,209C 637.833,208 637.167,207 636.5,206C 632.195,205.097 628.361,203.263 625,200.5C 622.227,194.395 623.727,189.728 629.5,186.5 Z"/></g>
<g><path style="opacity:1" fill="#052042" d="M 195.5,258.5 C 188.569,246.969 181.902,235.302 175.5,223.5C 178.392,218.057 181.559,212.724 185,207.5C 192.041,219.084 199.208,230.584 206.5,242C 202.97,247.677 199.304,253.177 195.5,258.5 Z"/></g>
<g><path style="opacity:1" fill="#2aa4d4" d="M 273.5,236.5 C 280.184,235.849 286.517,237.015 292.5,240C 293.357,240.689 294.023,241.522 294.5,242.5C 293.129,244.705 291.296,246.372 289,247.5C 276.743,241.412 269.576,245.078 267.5,258.5C 270.374,272.355 277.874,275.688 290,268.5C 291.833,270.333 293.667,272.167 295.5,274C 287.072,280.953 277.739,282.286 267.5,278C 258.033,270.59 255.199,261.09 259,249.5C 262.162,243.164 266.996,238.831 273.5,236.5 Z"/></g>
<g><path style="opacity:1" fill="#25a3d4" d="M 314.5,236.5 C 333.345,235.182 342.512,243.849 342,262.5C 339.055,274.07 331.555,280.07 319.5,280.5C 302.233,279.063 294.733,269.73 297,252.5C 299.886,243.774 305.719,238.441 314.5,236.5 Z M 314.5,244.5 C 328.317,243.488 333.817,249.822 331,263.5C 326.977,271.377 320.81,273.543 312.5,270C 304.188,260.744 304.855,252.244 314.5,244.5 Z"/></g>
<g><path style="opacity:1" fill="#26a4d4" d="M 348.5,236.5 C 351.187,236.336 353.854,236.503 356.5,237C 363.786,245.742 370.953,254.575 378,263.5C 378.5,254.506 378.666,245.506 378.5,236.5C 381.5,236.5 384.5,236.5 387.5,236.5C 387.5,251.167 387.5,265.833 387.5,280.5C 384.813,280.664 382.146,280.497 379.5,280C 372.693,270.892 365.526,262.058 358,253.5C 357.5,262.494 357.334,271.494 357.5,280.5C 354.5,280.5 351.5,280.5 348.5,280.5C 348.5,265.833 348.5,251.167 348.5,236.5 Z"/></g>
<g><path style="opacity:1" fill="#2aa4d4" d="M 404.5,236.5 C 411.412,235.321 417.412,236.988 422.5,241.5C 421.627,243.413 420.627,245.247 419.5,247C 416.329,246.121 412.996,245.288 409.5,244.5C 403.971,245.06 402.638,247.56 405.5,252C 409.99,253.274 414.323,254.941 418.5,257C 425.32,264.177 424.987,271.177 417.5,278C 408.333,282.087 400,280.92 392.5,274.5C 393.701,272.091 395.367,270.091 397.5,268.5C 400.628,270.399 403.962,271.733 407.5,272.5C 412.56,272.613 414.394,270.279 413,265.5C 408.439,262.812 403.606,260.645 398.5,259C 393.754,253.961 392.92,248.461 396,242.5C 398.322,239.605 401.155,237.605 404.5,236.5 Z"/></g>
<g><path style="opacity:1" fill="#26a4d4" d="M 429.5,236.5 C 432.833,236.5 436.167,236.5 439.5,236.5C 439.334,245.839 439.5,255.173 440,264.5C 442.449,271.137 446.949,272.97 453.5,270C 454.333,269.167 455.167,268.333 456,267.5C 457.399,257.232 457.899,246.898 457.5,236.5C 460.833,236.5 464.167,236.5 467.5,236.5C 467.933,247.91 467.433,259.244 466,270.5C 458.639,280.699 449.139,283.199 437.5,278C 434.616,276.116 432.449,273.616 431,270.5C 429.567,259.244 429.067,247.91 429.5,236.5 Z"/></g>
<g><path style="opacity:1" fill="#24a4d5" d="M 474.5,236.5 C 478.167,236.5 481.833,236.5 485.5,236.5C 485.5,248.5 485.5,260.5 485.5,272.5C 490.833,272.5 496.167,272.5 501.5,272.5C 501.5,275.167 501.5,277.833 501.5,280.5C 492.5,280.5 483.5,280.5 474.5,280.5C 474.5,265.833 474.5,251.167 474.5,236.5 Z"/></g>
<g><path style="opacity:1" fill="#24a4d5" d="M 498.5,236.5 C 510.167,236.5 521.833,236.5 533.5,236.5C 533.5,239.167 533.5,241.833 533.5,244.5C 529.5,244.5 525.5,244.5 521.5,244.5C 521.5,256.5 521.5,268.5 521.5,280.5C 517.833,280.5 514.167,280.5 510.5,280.5C 510.5,268.5 510.5,256.5 510.5,244.5C 506.5,244.5 502.5,244.5 498.5,244.5C 498.5,241.833 498.5,239.167 498.5,236.5 Z"/></g>
<g><path style="opacity:1" fill="#24a4d5" d="M 538.5,236.5 C 542.167,236.5 545.833,236.5 549.5,236.5C 549.5,251.167 549.5,265.833 549.5,280.5C 545.833,280.5 542.167,280.5 538.5,280.5C 538.5,265.833 538.5,251.167 538.5,236.5 Z"/></g>
<g><path style="opacity:1" fill="#25a4d4" d="M 557.5,236.5 C 560.187,236.336 562.854,236.503 565.5,237C 572.786,245.742 579.953,254.575 587,263.5C 587.5,254.506 587.666,245.506 587.5,236.5C 590.5,236.5 593.5,236.5 596.5,236.5C 596.5,251.167 596.5,265.833 596.5,280.5C 593.813,280.664 591.146,280.497 588.5,280C 581.712,270.877 574.546,262.044 567,253.5C 566.5,262.494 566.334,271.494 566.5,280.5C 563.5,280.5 560.5,280.5 557.5,280.5C 557.5,265.833 557.5,251.167 557.5,236.5 Z"/></g>
<g><path style="opacity:1" fill="#2ca4d4" d="M 620.5,236.5 C 628.706,235.342 636.373,237.175 643.5,242C 640.471,248.173 636.138,249.173 630.5,245C 620.221,243.306 614.555,247.639 613.5,258C 615.155,269.811 621.822,274.311 633.5,271.5C 633.5,269.167 633.5,266.833 633.5,264.5C 631.5,264.5 629.5,264.5 627.5,264.5C 627.5,262.167 627.5,259.833 627.5,257.5C 632.844,257.334 638.177,257.501 643.5,258C 643.285,263.259 643.285,268.759 643.5,274.5C 639.338,278.843 634.172,280.843 628,280.5C 605.889,277.949 598.889,266.282 607,245.5C 610.826,241.348 615.326,238.348 620.5,236.5 Z"/></g>
<g><path style="opacity:1" fill="#032042" d="M 152.5,260.5 C 154.592,260.561 156.092,261.561 157,263.5C 163.109,273.391 168.942,283.391 174.5,293.5C 168.42,304.097 162.086,314.597 155.5,325C 141.837,325.5 128.171,325.667 114.5,325.5C 114.491,323.692 114.991,322.025 116,320.5C 128.429,300.639 140.596,280.639 152.5,260.5 Z"/></g>
<g><path style="opacity:1" fill="#24a4d5" d="M 203.5,272.5 C 214.517,289.351 225.184,306.518 235.5,324C 221.5,324.667 207.5,324.667 193.5,324C 190.333,318.833 187.167,313.667 184,308.5C 183.333,307.167 183.333,305.833 184,304.5C 190.762,293.972 197.262,283.305 203.5,272.5 Z"/></g>
<g><path style="opacity:1" fill="#24a4d5" d="M 257.5,296.5 C 261.417,300.594 265.25,304.928 269,309.5C 269.172,305.129 269.672,300.796 270.5,296.5C 271.833,302.167 271.833,307.833 270.5,313.5C 266.843,309.673 263.343,305.673 260,301.5C 259.827,305.541 259.327,309.541 258.5,313.5C 257.505,307.872 257.171,302.206 257.5,296.5 Z"/></g>
<g><path style="opacity:1" fill="#27a4d5" d="M 280.5,296.5 C 281.675,296.281 282.675,296.614 283.5,297.5C 286.445,302.655 288.112,307.989 288.5,313.5C 287.585,312.672 286.919,311.672 286.5,310.5C 283.572,309.516 280.572,309.183 277.5,309.5C 277.883,312.462 276.883,313.462 274.5,312.5C 276.703,307.221 278.703,301.887 280.5,296.5 Z M 281.5,299.5 C 283.201,301.731 284.534,304.231 285.5,307C 283.527,307.495 281.527,307.662 279.5,307.5C 279.963,304.779 280.629,302.112 281.5,299.5 Z"/></g>
<g><path style="opacity:1" fill="#27a4d5" d="M 289.5,296.5 C 290.496,296.414 291.329,296.748 292,297.5C 293.471,301.581 295.138,305.581 297,309.5C 299.071,305.123 301.237,300.79 303.5,296.5C 303.833,297 304.167,297.5 304.5,298C 302.638,302.89 300.638,307.724 298.5,312.5C 297.675,313.386 296.675,313.719 295.5,313.5C 293.786,307.737 291.786,302.07 289.5,296.5 Z"/></g>
<g><path style="opacity:1" fill="#24a4d5" d="M 307.5,296.5 C 308.814,298.915 309.481,301.748 309.5,305C 309.167,307.833 308.833,310.667 308.5,313.5C 307.505,307.872 307.171,302.206 307.5,296.5 Z"/></g>
<g><path style="opacity:1" fill="#26a4d5" d="M 319.5,296.5 C 322.893,296.062 325.893,296.895 328.5,299C 325.153,298.392 321.82,298.559 318.5,299.5C 314.381,303.667 314.714,307.5 319.5,311C 321.81,311.497 324.143,311.663 326.5,311.5C 326.5,310.167 326.5,308.833 326.5,307.5C 325.325,307.719 324.325,307.386 323.5,306.5C 325.045,305.548 326.712,305.215 328.5,305.5C 328.449,313.204 324.782,315.371 317.5,312C 311.87,305.988 312.537,300.821 319.5,296.5 Z"/></g>
<g><path style="opacity:1" fill="#27a4d5" d="M 336.5,296.5 C 337.675,296.281 338.675,296.614 339.5,297.5C 342.445,302.655 344.112,307.989 344.5,313.5C 343.585,312.672 342.919,311.672 342.5,310.5C 339.572,309.516 336.572,309.183 333.5,309.5C 333.883,312.462 332.883,313.462 330.5,312.5C 333.069,307.365 335.069,302.031 336.5,296.5 Z M 337.5,299.5 C 339.201,301.731 340.534,304.231 341.5,307C 339.527,307.495 337.527,307.662 335.5,307.5C 335.963,304.779 336.629,302.112 337.5,299.5 Z"/></g>
<g><path style="opacity:1" fill="#24a4d5" d="M 344.5,296.5 C 349.214,296.173 353.88,296.507 358.5,297.5C 356.604,298.466 354.604,298.799 352.5,298.5C 351.833,318.5 351.167,318.5 350.5,298.5C 347.918,298.975 345.918,298.308 344.5,296.5 Z"/></g>
<g><path style="opacity:1" fill="#24a4d5" d="M 361.5,296.5 C 362.814,298.915 363.481,301.748 363.5,305C 363.167,307.833 362.833,310.667 362.5,313.5C 361.505,307.872 361.171,302.206 361.5,296.5 Z"/></g>
<g><path style="opacity:1" fill="#26a4d5" d="M 368.5,296.5 C 369.496,296.414 370.329,296.748 371,297.5C 373.615,301.783 376.615,305.783 380,309.5C 380.172,305.129 380.672,300.796 381.5,296.5C 382.833,302.167 382.833,307.833 381.5,313.5C 377.843,309.673 374.343,305.673 371,301.5C 370.827,305.541 370.327,309.541 369.5,313.5C 368.505,307.872 368.171,302.206 368.5,296.5 Z"/></g>
<g><path style="opacity:1" fill="#26a4d5" d="M 391.5,296.5 C 394.893,296.062 397.893,296.895 400.5,299C 397.153,298.392 393.82,298.559 390.5,299.5C 386.381,303.667 386.714,307.5 391.5,311C 393.81,311.497 396.143,311.663 398.5,311.5C 398.5,310.167 398.5,308.833 398.5,307.5C 397.325,307.719 396.325,307.386 395.5,306.5C 397.045,305.548 398.712,305.215 400.5,305.5C 400.449,313.204 396.782,315.371 389.5,312C 383.87,305.988 384.537,300.821 391.5,296.5 Z"/></g>
<g><path style="opacity:1" fill="#24a4d5" d="M 413.5,296.5 C 415.827,296.247 417.827,296.914 419.5,298.5C 417.657,298.755 415.657,298.922 413.5,299C 412.167,300.333 412.167,301.667 413.5,303C 415.087,303.862 416.754,304.529 418.5,305C 421.704,309.687 420.37,312.52 414.5,313.5C 412.559,313.196 410.893,312.363 409.5,311C 411.811,311.155 414.144,311.155 416.5,311C 417.357,310.311 418.023,309.478 418.5,308.5C 416.481,306.202 413.981,304.536 411,303.5C 409.916,300.341 410.75,298.008 413.5,296.5 Z"/></g>
<g><path style="opacity:1" fill="#27a4d5" d="M 423.5,296.5 C 425.268,300.044 426.102,304.044 426,308.5C 428.321,311.917 430.988,312.25 434,309.5C 434.499,305.179 434.666,300.846 434.5,296.5C 435.5,296.5 436.5,296.5 437.5,296.5C 437.666,300.514 437.499,304.514 437,308.5C 434.335,313.434 430.502,314.601 425.5,312C 424.874,311.25 424.374,310.416 424,309.5C 423.501,305.179 423.334,300.846 423.5,296.5 Z"/></g>
<g><path style="opacity:1" fill="#2ba5d5" d="M 446.5,296.5 C 449.564,296.144 452.231,296.977 454.5,299C 451.867,298.747 449.2,298.747 446.5,299C 441.556,302.403 441.222,306.236 445.5,310.5C 448.482,311.398 451.482,311.565 454.5,311C 448.632,314.895 444.132,313.728 441,307.5C 440.195,302.444 442.028,298.777 446.5,296.5 Z"/></g>
<g><path style="opacity:1" fill="#2ba5d5" d="M 462.5,296.5 C 465.564,296.144 468.231,296.977 470.5,299C 467.867,298.747 465.2,298.747 462.5,299C 457.556,302.403 457.222,306.236 461.5,310.5C 464.482,311.398 467.482,311.565 470.5,311C 464.632,314.895 460.132,313.728 457,307.5C 456.195,302.444 458.028,298.777 462.5,296.5 Z"/></g>
<g><path style="opacity:1" fill="#24a4d5" d="M 474.5,296.5 C 477.898,296.18 481.232,296.513 484.5,297.5C 481.914,298.48 479.247,298.813 476.5,298.5C 476.5,300.5 476.5,302.5 476.5,304.5C 485.833,305.167 485.833,305.833 476.5,306.5C 476.5,308.167 476.5,309.833 476.5,311.5C 479.247,311.187 481.914,311.52 484.5,312.5C 481.232,313.487 477.898,313.82 474.5,313.5C 474.5,307.833 474.5,302.167 474.5,296.5 Z"/></g>
<g><path style="opacity:1" fill="#2ba5d5" d="M 490.5,296.5 C 493.157,296.162 495.49,296.829 497.5,298.5C 495.071,298.421 492.571,298.755 490,299.5C 489.251,300.635 489.417,301.635 490.5,302.5C 493.968,303.37 496.302,305.37 497.5,308.5C 497.332,311.854 495.499,313.521 492,313.5C 489.851,313.342 488.017,312.508 486.5,311C 489.384,311.513 492.218,311.346 495,310.5C 495.781,309.056 495.614,307.723 494.5,306.5C 487.411,305.027 486.077,301.694 490.5,296.5 Z"/></g>
<g><path style="opacity:1" fill="#28a4d5" d="M 503.5,296.5 C 506.157,296.162 508.49,296.829 510.5,298.5C 508.071,298.421 505.571,298.755 503,299.5C 502.251,300.635 502.417,301.635 503.5,302.5C 505.385,303.609 507.385,304.443 509.5,305C 511.827,309.946 510.327,312.779 505,313.5C 503.188,313.507 501.688,312.84 500.5,311.5C 502.672,311.324 505.005,311.157 507.5,311C 508.059,310.275 508.392,309.442 508.5,308.5C 506.117,306.414 503.617,304.414 501,302.5C 500.458,299.918 501.292,297.918 503.5,296.5 Z"/></g>
<g><path style="opacity:1" fill="#24a4d5" d="M 518.5,296.5 C 522.884,296.174 527.217,296.508 531.5,297.5C 529.955,298.452 528.288,298.785 526.5,298.5C 526.5,303.5 526.5,308.5 526.5,313.5C 525.5,313.5 524.5,313.5 523.5,313.5C 523.5,308.5 523.5,303.5 523.5,298.5C 521.219,298.923 519.552,298.256 518.5,296.5 Z"/></g>
<g><path style="opacity:1" fill="#26a4d5" d="M 538.5,296.5 C 545.238,295.552 548.905,298.386 549.5,305C 549.35,310.483 546.517,313.317 541,313.5C 534.664,312.493 531.998,308.827 533,302.5C 534.021,299.65 535.854,297.65 538.5,296.5 Z M 538.5,298.5 C 546.845,298.691 549.178,302.524 545.5,310C 536.684,312.517 533.517,309.35 536,300.5C 536.995,299.934 537.828,299.267 538.5,298.5 Z"/></g>
<g><path style="opacity:1" fill="#29a5d5" d="M 558.5,296.5 C 561.4,296.28 564.067,296.946 566.5,298.5C 563.943,298.782 561.277,298.949 558.5,299C 554.21,301.531 553.377,305.031 556,309.5C 558.579,311.347 561.412,311.847 564.5,311C 565.337,309.989 565.67,308.822 565.5,307.5C 563.897,307.688 562.563,307.188 561.5,306C 563.473,305.505 565.473,305.338 567.5,305.5C 568.824,311.009 566.657,313.676 561,313.5C 553.865,312.579 551.199,308.579 553,301.5C 554.107,298.887 555.94,297.22 558.5,296.5 Z"/></g>
<g><path style="opacity:1" fill="#24a4d5" d="M 571.5,296.5 C 574.898,296.18 578.232,296.513 581.5,297.5C 578.914,298.48 576.247,298.813 573.5,298.5C 573.5,300.5 573.5,302.5 573.5,304.5C 582.833,305.167 582.833,305.833 573.5,306.5C 573.5,308.167 573.5,309.833 573.5,311.5C 576.247,311.187 578.914,311.52 581.5,312.5C 578.232,313.487 574.898,313.82 571.5,313.5C 571.5,307.833 571.5,302.167 571.5,296.5 Z"/></g>
<g><path style="opacity:1" fill="#24a4d5" d="M 583.5,296.5 C 587.884,296.174 592.217,296.508 596.5,297.5C 594.955,298.452 593.288,298.785 591.5,298.5C 591.5,303.5 591.5,308.5 591.5,313.5C 590.5,313.5 589.5,313.5 588.5,313.5C 588.5,308.5 588.5,303.5 588.5,298.5C 586.219,298.923 584.552,298.256 583.5,296.5 Z"/></g>
<g><path style="opacity:1" fill="#24a4d5" d="M 599.5,296.5 C 601.369,298.635 602.036,301.302 601.5,304.5C 604.5,304.5 607.5,304.5 610.5,304.5C 610.5,301.833 610.5,299.167 610.5,296.5C 611.5,296.5 612.5,296.5 613.5,296.5C 613.5,302.167 613.5,307.833 613.5,313.5C 612.5,313.5 611.5,313.5 610.5,313.5C 610.5,311.167 610.5,308.833 610.5,306.5C 607.5,306.5 604.5,306.5 601.5,306.5C 601.808,308.924 601.474,311.257 600.5,313.5C 599.505,307.872 599.171,302.206 599.5,296.5 Z"/></g>
<g><path style="opacity:1" fill="#24a4d5" d="M 618.5,296.5 C 621.898,296.18 625.232,296.513 628.5,297.5C 625.914,298.48 623.247,298.813 620.5,298.5C 620.5,300.5 620.5,302.5 620.5,304.5C 629.833,305.167 629.833,305.833 620.5,306.5C 620.5,308.167 620.5,309.833 620.5,311.5C 623.247,311.187 625.914,311.52 628.5,312.5C 625.232,313.487 621.898,313.82 618.5,313.5C 618.5,307.833 618.5,302.167 618.5,296.5 Z"/></g>
<g><path style="opacity:1" fill="#2fa6d6" d="M 632.5,296.5 C 635.187,296.336 637.854,296.503 640.5,297C 644.505,300.36 644.172,303.36 639.5,306C 645.832,315.339 645.165,315.672 637.5,307C 636.552,306.517 635.552,306.351 634.5,306.5C 634.808,308.924 634.474,311.257 633.5,313.5C 632.505,307.872 632.171,302.206 632.5,296.5 Z M 634.5,298.5 C 637.596,297.907 639.929,298.907 641.5,301.5C 639.929,304.093 637.596,305.093 634.5,304.5C 634.5,302.5 634.5,300.5 634.5,298.5 Z"/></g>
</svg>
