<!DOCTYPE svg PUBLIC "-//W3C//DTD SVG 1.1//EN" "http://www.w3.org/Graphics/SVG/1.1/DTD/svg11.dtd">

<!-- Uploaded to: SVG Repo, www.svgrepo.com, Transformed by: SVG Repo Mixer Tools -->
<svg class="fill-primary dark:fill-white" width="800px" height="800px" viewBox="0 0 512 512" version="1.1" xml:space="preserve" xmlns="http://www.w3.org/2000/svg" xmlns:xlink="http://www.w3.org/1999/xlink">

<g id="SVGRepo_bgCarrier" strokeWidth="0"/>

<g id="SVGRepo_tracerCarrier" strokeLinecap="round" strokeLinejoin="round"/>

<g id="SVGRepo_iconCarrier"> <g id="B_-_135_x2C__chart_x2C__Analytics_x2C__graphs_x2C__market_x2C__schedule_x2C__time_x2C__trends"> <g> <path d="M160.196,234.708c-1.119-0.89-1.315-2.501-0.427-3.621 c0.888-1.118,2.536-1.316,3.654-0.427l28.04,22.182l24.714-14.548c1.221-0.723,2.799-0.329,3.555,0.923 c0.724,1.216,0.296,2.83-0.954,3.554l-26.166,15.468c-0.888,0.526-2.072,0.461-2.927-0.197L160.196,234.708z M299.244,266.104 h-10.893v43.015h10.893V266.104z M325.705,239.677h-10.896v69.441h10.896V239.677z M352.162,253.992h-10.925v55.126h10.925 V253.992z M378.592,232.108h-10.86v77.01h10.86V232.108z M405.053,216.375h-10.896v92.743h10.896V216.375z M432.168,192.647 h-10.86v116.471h10.86V192.647z M270.02,151.213c0,1.416-1.15,2.6-2.602,2.6c-1.447,0-2.598-1.184-2.598-2.6v-20.898l-7.999-4.608 l-24.418,30.64c-0.724,0.922-2.01,1.219-3.062,0.758c-3.457-1.317-6.975-2.468-10.662-3.457c-3.653-0.954-7.34-1.744-10.991-2.336 c-1.187-0.165-2.01-1.085-2.207-2.172l-5.792-38.734h-16.785l-5.858,38.734c-0.164,1.252-1.183,2.14-2.371,2.206 c-3.65,0.592-7.239,1.35-10.793,2.303c-3.72,0.988-7.271,2.172-10.728,3.489c-1.085,0.428-2.305,0.066-2.997-0.791l-24.418-30.64 l-14.513,8.393l14.348,36.498c0.428,1.119,0.033,2.336-0.888,3.028c-2.897,2.337-5.66,4.838-8.295,7.471 c-2.699,2.698-5.231,5.496-7.537,8.393c-0.724,0.888-1.941,1.183-2.994,0.789L69.364,175.93l-8.36,14.513l30.641,24.419 c0.921,0.758,1.217,2.008,0.756,3.062c-1.315,3.455-2.47,6.977-3.457,10.629c-0.954,3.654-1.743,7.372-2.334,11.026 c-0.165,1.151-1.089,2.008-2.174,2.171l-38.735,5.858v16.783l38.735,5.827c1.217,0.163,2.141,1.183,2.239,2.402 c0.526,3.588,1.316,7.206,2.27,10.795l0.033,0.065c0.954,3.686,2.142,7.24,3.457,10.662c0.428,1.087,0.066,2.304-0.822,2.962 l-30.608,24.42l8.36,14.546l36.498-14.349c1.085-0.427,2.303-0.065,2.994,0.789c2.371,2.931,4.903,5.728,7.537,8.393 c2.668,2.633,5.464,5.167,8.361,7.505c0.92,0.756,1.216,1.975,0.822,2.994L111.227,377.9l14.513,8.393l24.418-30.642 c0.757-0.953,2.043-1.249,3.063-0.789c3.423,1.351,7.008,2.501,10.629,3.457c3.653,0.986,7.374,1.775,11.06,2.336 c1.118,0.165,1.974,1.086,2.138,2.173l5.858,38.734h16.785l5.792-38.734c0.197-1.219,1.216-2.106,2.404-2.205 c3.618-0.562,7.238-1.351,10.826-2.304c3.687-0.988,7.271-2.14,10.728-3.489c1.085-0.428,2.272-0.066,2.963,0.821l24.418,30.642 l7.999-4.641v-20.865c0-1.448,1.15-2.6,2.598-2.6c1.451,0,2.602,1.151,2.602,2.6v22.378c-0.033,0.89-0.46,1.745-1.315,2.238 l-11.224,6.483c-1.119,0.658-2.533,0.395-3.325-0.625l-24.649-30.903c-3.128,1.12-6.285,2.14-9.478,2.996 c-3.128,0.821-6.351,1.546-9.643,2.106l-5.858,38.997c-0.164,1.284-1.249,2.337-2.601,2.337h-21.292 c-1.253,0-2.371-0.921-2.569-2.237l-5.857-39.097c-3.325-0.561-6.548-1.285-9.708-2.106c-3.193-0.856-6.35-1.876-9.445-2.996 l-24.616,30.903c-0.825,0.987-2.206,1.283-3.357,0.625l-18.331-10.598c-1.151-0.592-1.678-1.973-1.184-3.225l14.48-36.827 c-2.569-2.106-5.002-4.344-7.34-6.648c-2.335-2.369-4.575-4.837-6.679-7.339l-36.828,14.482c-1.183,0.428-2.567,0-3.193-1.153 l-10.53-18.265c-0.757-1.118-0.526-2.633,0.526-3.455l30.904-24.618c-1.121-3.126-2.108-6.252-2.963-9.412l-0.033-0.065 c-0.822-3.159-1.546-6.385-2.104-9.676l-38.969-5.856c-1.315-0.132-2.367-1.252-2.367-2.603v-21.293 c0-1.249,0.954-2.369,2.236-2.566l39.1-5.858c0.559-3.325,1.283-6.55,2.104-9.676c0.855-3.226,1.842-6.385,2.996-9.478 l-30.904-24.617c-0.987-0.79-1.283-2.206-0.625-3.324l10.531-18.265c0.592-1.219,2.042-1.778,3.292-1.285l36.828,14.48 c2.138-2.566,4.377-5.035,6.679-7.338c2.338-2.336,4.771-4.575,7.34-6.679l-14.48-36.827c-0.46-1.153,0-2.534,1.118-3.194 l18.397-10.629c1.118-0.625,2.532-0.395,3.357,0.625l24.616,30.935c3.128-1.15,6.285-2.172,9.478-3.027 c3.128-0.822,6.351-1.546,9.676-2.105l5.857-38.999c0.099-1.284,1.25-2.304,2.569-2.304h21.292c1.253,0,2.371,0.921,2.568,2.204 l5.89,39.098c3.292,0.559,6.515,1.284,9.643,2.105c3.193,0.855,6.35,1.877,9.478,3.027l24.649-30.935 c0.759-0.987,2.206-1.25,3.325-0.625l11.023,6.386c0.891,0.395,1.516,1.315,1.516,2.369V151.213z M296.346,326 c-1.447,0-2.598-1.151-2.598-2.6c0-1.416,1.15-2.599,2.598-2.599h110.482c1.446,0,2.602,1.183,2.602,2.599 c0,1.448-1.155,2.6-2.602,2.6H296.346z M347.686,338.473c-1.446,0-2.631-1.184-2.631-2.599c0-1.449,1.185-2.601,2.631-2.601 h98.765c1.417,0,2.602,1.151,2.602,2.601c0,1.415-1.185,2.599-2.602,2.599H347.686z M456.557,338.473 c-1.418,0-2.635-1.184-2.635-2.599c0-1.449,1.217-2.601,2.635-2.601h12.339c1.45,0,2.635,1.151,2.635,2.601 c0,1.415-1.185,2.599-2.635,2.599H456.557z M258.467,338.111c-1.447,0-2.599-1.186-2.599-2.633c0-1.416,1.151-2.6,2.599-2.6 h46.799c1.45,0,2.602,1.184,2.602,2.6c0,1.447-1.151,2.633-2.602,2.633H258.467z M422.854,178.891 c-0.131,1.416-1.381,2.468-2.828,2.336c-1.414-0.098-2.47-1.383-2.338-2.796l0.229-2.929l-37.156,37.155 c-0.986,0.988-2.663,0.988-3.683,0l-7.934-7.964l-30.012,30.015c-1.023,0.987-2.667,0.987-3.688,0l-14.084-14.085l-37.716,37.714 c-1.023,1.02-2.668,1.02-3.688,0s-1.02-2.665,0-3.686l39.558-39.559c1.022-1.02,2.667-1.02,3.686,0l14.086,14.085l30.017-30.013 c1.02-1.021,2.664-1.021,3.684,0l7.933,7.964l36.201-36.168l-4.573-0.165c-1.418-0.065-2.536-1.284-2.503-2.699 c0.066-1.448,1.285-2.567,2.699-2.501l10.268,0.362c0.725-0.033,1.447,0.231,2.006,0.758c0.629,0.625,0.859,1.513,0.694,2.337 L422.854,178.891z M244.118,203.146c-4.016-3.981-8.459-7.503-13.264-10.53l-6.942,12.045c-0.724,1.251-2.305,1.646-3.555,0.954 c-1.217-0.724-1.645-2.304-0.954-3.554l6.942-12.045c-9.708-5.2-20.732-8.294-32.479-8.689v13.888c0,1.448-1.155,2.6-2.569,2.6 c-1.447,0-2.635-1.151-2.635-2.6v-13.888c-11.713,0.395-22.738,3.489-32.479,8.689l6.975,12.045 c0.691,1.25,0.264,2.83-0.954,3.554c-1.25,0.692-2.864,0.297-3.588-0.954l-6.909-12.045c-4.838,3.027-9.249,6.549-13.264,10.53 c-3.983,4.016-7.538,8.458-10.533,13.263l12.046,6.944c1.217,0.724,1.645,2.304,0.955,3.554c-0.724,1.252-2.303,1.679-3.556,0.955 l-12.043-6.977c-5.2,9.741-8.295,20.8-8.689,32.515h13.888c1.414,0,2.602,1.151,2.602,2.6c0,1.416-1.188,2.6-2.602,2.6h-13.888 c0.394,11.717,3.489,22.741,8.689,32.482l12.043-6.977c1.253-0.69,2.832-0.264,3.556,0.954c0.69,1.251,0.263,2.831-0.955,3.555 l-12.046,6.944c2.995,4.837,6.55,9.28,10.533,13.262c4.016,3.982,8.426,7.538,13.264,10.532l6.909-12.045 c0.724-1.219,2.338-1.646,3.588-0.922c1.217,0.691,1.645,2.303,0.954,3.521l-6.975,12.045c9.741,5.199,20.766,8.294,32.479,8.688 v-13.888c0-1.416,1.188-2.6,2.635-2.6c1.414,0,2.569,1.184,2.569,2.6v13.888c11.747-0.395,22.771-3.489,32.479-8.688 l-6.942-12.045c-0.691-1.219-0.263-2.83,0.954-3.521c1.25-0.725,2.832-0.297,3.555,0.922l6.975,12.045 c4.772-2.994,9.249-6.55,13.231-10.532c3.982-3.981,7.505-8.425,10.533-13.262l-12.046-6.944 c-1.217-0.724-1.645-2.304-0.955-3.555c0.724-1.218,2.302-1.645,3.555-0.954l12.043,6.977c5.2-9.741,8.295-20.766,8.689-32.482 H252.05c-1.415,0-2.602-1.184-2.602-2.6c0-1.449,1.187-2.6,2.602-2.6h13.888c-0.395-11.715-3.489-22.774-8.689-32.515 l-12.043,6.977c-1.253,0.724-2.832,0.297-3.555-0.955c-0.69-1.25-0.263-2.83,0.955-3.554l12.046-6.944 c-2.963-4.771-6.485-9.183-10.402-13.132L244.118,203.146z" style="fill-rule:evenodd;clip-rule:evenodd;"/> </g> </g> <g id="Layer_1"/> </g>

</svg>