<!DOCTYPE svg PUBLIC "-//W3C//DTD SVG 1.1//EN" "http://www.w3.org/Graphics/SVG/1.1/DTD/svg11.dtd">
<!-- Uploaded to: SVG Repo, www.svgrepo.com, Transformed by: SVG Repo Mixer Tools -->
<svg fill="#051F42" width="800px" height="800px" viewBox="0 0 512 512" version="1.1" xml:space="preserve" xmlns="http://www.w3.org/2000/svg" xmlns:xlink="http://www.w3.org/1999/xlink">
<g id="SVGRepo_bgCarrier" stroke-width="0"/>
<g id="SVGRepo_tracerCarrier" stroke-linecap="round" stroke-linejoin="round"/>
<g id="SVGRepo_iconCarrier"> <g id="_x33_82_x2C__economy_x2C__finance_x2C__money_x2C__information_x2C__reports"> <g> <path d="M87.382,302.592v-8.434c-2.618-0.747-4.544-1.884-5.755-3.408 c-1.229-1.525-1.856-3.351-1.856-5.533c0-2.213,0.706-4.066,2.095-5.563c1.375-1.495,3.229-2.362,5.517-2.57v-2.004h2.931v2.004 c2.137,0.238,3.857,0.985,5.131,2.182c1.253,1.196,2.078,2.812,2.421,4.815l-5.113,0.687c-0.316-1.584-1.137-2.66-2.439-3.229 v7.864c3.246,0.868,5.457,2.004,6.626,3.38c1.165,1.405,1.762,3.17,1.762,5.353c0,2.423-0.748,4.486-2.211,6.13 c-1.495,1.676-3.544,2.692-6.177,3.111v3.768h-2.931v-3.707c-2.316-0.301-4.201-1.138-5.636-2.573 c-1.467-1.435-2.379-3.499-2.783-6.101l5.236-0.628c0.207,1.077,0.628,2.003,1.225,2.781 C86.007,301.694,86.649,302.232,87.382,302.592 M141.794,327.921h-36.513h-0.105H89.46H45.679v25.749h43.483h0.091h52.541V327.921 z M145.563,360.996h-0.091h-0.102H92.931v25.748h76.062h0.105h0.091h19.857v-25.748H145.563z M381.496,288.537h-10.841v84.51 h10.841V288.537z M346.089,315.81h-10.841v57.237h10.841V315.81z M310.682,249.779h-10.841v123.268h10.841V249.779z M275.274,294.278h-10.841v78.769h10.841V294.278z M239.867,322.509h-10.841v50.538h10.841V322.509z M366.978,281.18h18.183 c2.035,0,3.678,1.645,3.678,3.679v91.868c0,2.004-1.643,3.678-3.678,3.678h-18.183c-2.019,0-3.679-1.674-3.679-3.678v-91.868 C363.299,282.824,364.959,281.18,366.978,281.18z M331.57,308.453h18.183c2.035,0,3.678,1.645,3.678,3.678v64.596 c0,2.004-1.643,3.678-3.678,3.678H331.57c-2.018,0-3.678-1.674-3.678-3.678v-64.596 C327.893,310.098,329.553,308.453,331.57,308.453z M296.162,242.424h18.184c2.035,0,3.678,1.645,3.678,3.678v130.625 c0,2.004-1.643,3.678-3.678,3.678h-18.184c-2.018,0-3.678-1.674-3.678-3.678V246.102 C292.484,244.068,294.145,242.424,296.162,242.424z M260.755,286.922h18.183c2.036,0,3.679,1.645,3.679,3.678v86.127 c0,2.004-1.643,3.678-3.679,3.678h-18.183c-2.018,0-3.678-1.674-3.678-3.678V290.6 C257.077,288.566,258.737,286.922,260.755,286.922z M225.348,315.152h18.183c2.036,0,3.678,1.645,3.678,3.678v57.896 c0,2.004-1.642,3.678-3.678,3.678h-18.183c-2.018,0-3.678-1.674-3.678-3.678V318.83 C221.67,316.797,223.33,315.152,225.348,315.152z M105.176,89.788h0.105h218.8V67.479h-218.8h-0.105H78.784v22.309H105.176z M90.313,302.92c1.004-0.209,1.839-0.688,2.467-1.436c0.642-0.747,0.958-1.613,0.958-2.631c0-0.897-0.27-1.675-0.807-2.333 c-0.523-0.628-1.407-1.136-2.618-1.495V302.92z M87.382,281.449c-0.793,0.269-1.421,0.748-1.87,1.405 c-0.463,0.628-0.685,1.347-0.685,2.124c0,0.717,0.207,1.375,0.625,1.974c0.421,0.597,1.063,1.105,1.93,1.495V281.449z M140.18,119.154c-2.018,0-3.678-1.644-3.678-3.678c0-2.033,1.66-3.678,3.678-3.678h118.199c2.019,0,3.664,1.645,3.664,3.678 c0,2.034-1.646,3.678-3.664,3.678H140.18z M140.18,138.295c-2.018,0-3.678-1.645-3.678-3.679s1.66-3.679,3.678-3.679h174.66 c2.019,0,3.664,1.645,3.664,3.679s-1.646,3.679-3.664,3.679H140.18z M140.18,157.404c-2.018,0-3.678-1.646-3.678-3.649 c0-2.034,1.66-3.679,3.678-3.679h246.91c2.019,0,3.679,1.645,3.679,3.679c0,2.003-1.66,3.649-3.679,3.649H140.18z M140.18,176.543 c-2.018,0-3.678-1.646-3.678-3.679c0-2.003,1.66-3.649,3.678-3.649h246.91c2.019,0,3.679,1.646,3.679,3.649 c0,2.032-1.66,3.679-3.679,3.679H140.18z M140.18,195.682c-2.018,0-3.678-1.645-3.678-3.678c0-2.004,1.66-3.68,3.678-3.68h246.91 c2.019,0,3.679,1.676,3.679,3.68c0,2.033-1.66,3.678-3.679,3.678H140.18z M140.18,214.821c-2.018,0-3.678-1.646-3.678-3.679 s1.66-3.678,3.678-3.678h246.91c2.019,0,3.679,1.645,3.679,3.678s-1.66,3.679-3.679,3.679H140.18z M110.514,368.023 c0-2.033,1.646-3.678,3.678-3.678c2.036,0,3.678,1.645,3.678,3.678v11.723c0,2.004-1.643,3.648-3.678,3.648 c-2.032,0-3.678-1.645-3.678-3.648V368.023z M128.458,368.023c0-2.033,1.643-3.678,3.678-3.678c2.032,0,3.678,1.645,3.678,3.678 v11.723c0,2.004-1.646,3.648-3.678,3.648c-2.036,0-3.678-1.645-3.678-3.648V368.023z M146.402,368.023 c0-2.033,1.643-3.678,3.678-3.678c2.018,0,3.678,1.645,3.678,3.678v11.723c0,2.004-1.66,3.648-3.678,3.648 c-2.035,0-3.678-1.645-3.678-3.648V368.023z M164.342,368.023c0-2.033,1.646-3.678,3.678-3.678c2.035,0,3.678,1.645,3.678,3.678 v11.723c0,2.004-1.643,3.648-3.678,3.648c-2.032,0-3.678-1.645-3.678-3.648V368.023z M86.965,401.099 c0-2.034,1.643-3.679,3.678-3.679c2.018,0,3.664,1.645,3.664,3.679v11.723c0,2.033-1.646,3.679-3.664,3.679 c-2.036,0-3.678-1.646-3.678-3.679V401.099z M104.905,401.099c0-2.034,1.646-3.679,3.682-3.679c2.018,0,3.661,1.645,3.661,3.679 v11.723c0,2.033-1.643,3.679-3.661,3.679c-2.036,0-3.682-1.646-3.682-3.679V401.099z M122.85,401.099 c0-2.034,1.646-3.679,3.678-3.679c2.018,0,3.664,1.645,3.664,3.679v11.723c0,2.033-1.646,3.679-3.664,3.679 c-2.032,0-3.678-1.646-3.678-3.679V401.099z M140.793,401.099c0-2.034,1.643-3.679,3.664-3.679c2.032,0,3.678,1.645,3.678,3.679 v11.723c0,2.033-1.646,3.679-3.678,3.679c-2.021,0-3.664-1.646-3.664-3.679V401.099z M63.953,334.919 c0-2.003,1.643-3.649,3.678-3.649c2.032,0,3.678,1.646,3.678,3.649v11.723c0,2.034-1.646,3.678-3.678,3.678 c-2.035,0-3.678-1.644-3.678-3.678V334.919z M81.894,334.919c0-2.003,1.646-3.649,3.682-3.649c2.032,0,3.678,1.646,3.678,3.649 v11.723c0,2.034-1.646,3.678-3.678,3.678c-2.036,0-3.682-1.644-3.682-3.678V334.919z M99.838,334.919 c0-2.003,1.646-3.649,3.678-3.649c2.036,0,3.678,1.646,3.678,3.649v11.723c0,2.034-1.643,3.678-3.678,3.678 c-2.032,0-3.678-1.644-3.678-3.678V334.919z M117.782,334.919c0-2.003,1.643-3.649,3.678-3.649c2.032,0,3.678,1.646,3.678,3.649 v11.723c0,2.034-1.646,3.678-3.678,3.678c-2.036,0-3.678-1.644-3.678-3.678V334.919z M220.147,395.357 c-2.036,0-3.678-1.646-3.678-3.678c0-2.034,1.643-3.68,3.678-3.68h175.121c2.035,0,3.678,1.646,3.678,3.68 c0,2.032-1.643,3.678-3.678,3.678H220.147z M466.04,301.845c0,2.032-1.646,3.678-3.664,3.678c-2.035,0-3.678-1.646-3.678-3.678 V64.997h-79.206l58.841,58.823v295.999H172.762v-25.719h19.962c2.018,0,3.664-1.674,3.664-3.678v-33.075 c0-2.034-1.646-3.678-3.664-3.678H149.15v-29.427c0-2.004-1.657-3.649-3.678-3.649h-34.719c1.077-0.867,2.095-1.764,3.081-2.751 c4.577-4.575,7.865-10.437,9.286-16.986l0.014-0.089c0.193-0.896,0.358-1.824,0.478-2.752l0.031-0.148v-0.12l0.028-0.269 l0.018-0.03l0.014-0.27L123.73,297v-0.09l0.032-0.3l0.014-0.03l0.018-0.238l0.028-0.209v-0.09l0.014-0.27l0.018-0.061v-0.208 l0.014-0.239v-0.061l0.014-0.299v-0.09l0.014-0.18v-0.27l0.018-0.029v-0.269v-0.12v-0.18v-0.269v-0.3v-0.149v-0.149v-0.269 l-0.018-0.03v-0.27l-0.014-0.18v-0.089l-0.014-0.3v-0.059l-0.014-0.21v-0.209l-0.018-0.089l-0.014-0.271v-0.089l-0.028-0.209 l-0.018-0.239l-0.014-0.029l-0.032-0.3v-0.09l-0.028-0.179l-0.014-0.271h-0.018l-0.028-0.298v-0.119l-0.031-0.15 c-0.12-0.928-0.285-1.854-0.478-2.75l-0.014-0.091c-1.421-6.55-4.709-12.411-9.286-16.986c-1.495-1.495-3.141-2.841-4.875-4.036 V97.145h218.785c2.033,0,3.679-1.674,3.679-3.678V63.801c0-2.033-1.646-3.678-3.679-3.678H108.959V37.814l243.366,0.029 l19.856,19.827h90.194c2.019,0,3.664,1.645,3.664,3.679V301.845z M361.355,435.967c2.021,0,3.664,1.646,3.664,3.68 c0,2.032-1.643,3.679-3.664,3.679H88.772c-2.018,0-3.678-1.646-3.678-3.679l0.298-19.827H69.305v-25.719h19.857h0.091h76.167 v25.719H92.752l-0.302,16.147H361.355z M454.81,358.484c0-2.033,1.66-3.679,3.678-3.679c2.032,0,3.679,1.646,3.679,3.679v81.162 c0,2.032-1.646,3.679-3.679,3.679h-56.461c-2.032,0-3.678-1.646-3.678-3.679c0-2.034,1.646-3.68,3.678-3.68h52.783V358.484z M52.273,459.353c-2.018,0-3.678-1.644-3.678-3.678s1.66-3.678,3.678-3.678h307.018c2.036,0,3.682,1.644,3.682,3.678 s-1.646,3.678-3.682,3.678H52.273z M221.551,474.186c-2.032,0-3.678-1.645-3.678-3.678c0-2.034,1.646-3.678,3.678-3.678h212.476 c2.019,0,3.664,1.644,3.664,3.678c0,2.033-1.646,3.678-3.664,3.678H221.551z M455.768,474.186c-2.035,0-3.682-1.645-3.682-3.678 c0-2.034,1.646-3.678,3.682-3.678h26.553c2.036,0,3.679,1.644,3.679,3.678c0,2.033-1.643,3.678-3.679,3.678H455.768z M29.683,473.707c-2.035,0-3.681-1.645-3.681-3.678c0-2.004,1.646-3.679,3.681-3.679h100.66c2.032,0,3.678,1.675,3.678,3.679 c0,2.033-1.646,3.678-3.678,3.678H29.683z M109.826,274.332c-4.889-4.904-11.662-7.925-19.137-7.925 c-7.493,0-14.266,3.021-19.169,7.925c-4.906,4.904-7.924,11.662-7.924,19.169c0,7.476,3.018,14.234,7.924,19.139 c4.903,4.905,11.676,7.954,19.169,7.954c5.054,0,9.777-1.405,13.831-3.797l0.042-0.029c1.944-1.168,3.709-2.543,5.264-4.128 c3.664-3.647,6.282-8.344,7.388-13.606v-0.09l0.028-0.119l0.046-0.21l0.119-0.658l0.032-0.209l0.014-0.119l0.031-0.12l0.028-0.21 v-0.03l0.031-0.208l0.014-0.12l0.014-0.089l0.032-0.21v-0.03l0.014-0.209l0.014-0.149v-0.06l0.032-0.239v-0.029l0.014-0.181 l0.014-0.179v-0.029l0.014-0.24l0.018-0.06v-0.149l0.014-0.209v-0.03l0.014-0.239v-0.061v-0.149l0.017-0.209v-0.03v-0.209v-0.119 v-0.121v-0.208v-0.239v-0.119v-0.121v-0.209v-0.029l-0.017-0.209v-0.12v-0.091l-0.014-0.238v-0.029l-0.014-0.18v-0.18l-0.018-0.06 l-0.014-0.21v-0.06l-0.014-0.179l-0.014-0.18v-0.03l-0.032-0.239v-0.06l-0.014-0.149l-0.014-0.18v-0.06l-0.032-0.21l-0.014-0.09 l-0.014-0.119l-0.031-0.209v-0.03l-0.028-0.21l-0.031-0.09l-0.014-0.119l-0.032-0.239l-0.119-0.657l-0.046-0.18l-0.028-0.15v-0.09 C116.108,282.705,113.504,277.98,109.826,274.332z" style="fill-rule:evenodd;clip-rule:evenodd;"/> </g> </g> <g id="Layer_1"/> </g>
</svg>